<svg xmlns="http://www.w3.org/2000/svg" xmlns:xlink="http://www.w3.org/1999/xlink" xml:space="preserve" style="shape-rendering:geometricPrecision;text-rendering:geometricPrecision;image-rendering:optimizeQuality;" viewBox="0 0 1.70666 2.133325" x="0px" y="0px" fill-rule="evenodd" clip-rule="evenodd"><defs><style type="text/css">
   
    .fil0 {fill:black}
   
  </style></defs><g><path class="fil0" d="M1.20791 1.0904l-0.302055 0c-0.00115354,0 -0.0023189,-0.000110236 -0.00345669,-0.00030315l-0.167311 -0.0293543c0.00880315,-0.0238228 0.0136142,-0.049563 0.0136142,-0.0764094 0,-0.121894 -0.0991378,-0.221016 -0.221028,-0.221016 -0.120358,0 -0.218524,0.0966535 -0.220972,0.216433l-0.165579 -0.0537047c-0.00824803,-0.0026811 -0.0138228,-0.0103543 -0.0138228,-0.0190157l0 -0.115425c0,-0.0110315 0.00895276,-0.0199882 0.0199843,-0.0199882l0.205933 0c0.141039,-0.194303 0.323961,-0.209583 0.377268,-0.209583 0.0121457,0 0.0191969,0.000724409 0.0199606,0.00080315 0.0101457,0.00109449 0.0178504,0.00966142 0.0178504,0.019874l0 0.0623031c0,0.00969685 -0.00695669,0.018 -0.0165039,0.0196811 -0.0286299,0.00505118 -0.0472795,0.0160276 -0.0554016,0.032626 -0.0103976,0.0212323 -0.00322047,0.0504528 0.00362598,0.0681457 0.0171693,-0.000448819 0.043063,-0.000102362 0.0772323,0.00107874 0.0105512,0.000362205 0.0189921,0.00885433 0.0192953,0.0194016 0.00111024,0.0387402 0.0385276,0.0544173 0.0484961,0.0579173l0.175346 3.93701e-006 0.0518071 -0.0537913c0.00409843,-0.00424803 0.00995276,-0.00648425 0.0157402,-0.00607874 0.0245709,0.00164961 0.0477165,0.00324409 0.0685512,0.00470472l-0.0442362 0.165059 -0.312106 0c-0.0110315,0 -0.0199843,0.00896457 -0.0199843,0.0199882 0,0.0110197 0.00895276,0.0199843 0.0199843,0.0199843l0.327441 0c0.00903543,0 0.0169567,-0.00607874 0.0193031,-0.0148071l0.0502047 -0.187346c0.0368425,0.00264567 0.0598425,0.00438189 0.0598425,0.00438189 0.00213386,0.000169291 0.00425591,0.000665354 0.00622835,0.0015l0.0126929 0.00533465c-0.0574291,0.0399528 -0.0950984,0.106413 -0.0950984,0.181535 0,0.0384134 0.00985433,0.074563 0.0271535,0.106067z"/><path class="fil0" d="M1.68606 1.0904l-0.0903898 0c0.0172992,-0.0315039 0.0271535,-0.0676535 0.0271535,-0.106067 0,-0.012626 -0.00107874,-0.025 -0.00312205,-0.0370512l0.0740906 0.0311299c0.0074252,0.00312205 0.012252,0.0103661 0.012252,0.0184173l0 0.0735866c0,0.0110276 -0.00895276,0.0199843 -0.0199843,0.0199843z"/><path class="fil0" d="M0.527677 1.16538c-0.099815,0 -0.181031,-0.0812323 -0.181031,-0.181051 0,-0.099815 0.0812165,-0.18102 0.181031,-0.18102 0.0998189,0 0.181031,0.0812047 0.181031,0.18102 0,0.0998189 -0.0811969,0.181051 -0.181031,0.181051zm0 -0.0941102c-0.047937,0 -0.0869252,-0.0390118 -0.0869252,-0.0869409 0,-0.0479252 0.0390039,-0.086937 0.0869252,-0.086937 0.0479213,0 0.0869252,0.0390118 0.0869252,0.086937 0,0.0479291 -0.0389882,0.0869409 -0.0869252,0.0869409zm0 -0.133878c-0.0258976,0 -0.0469528,0.0210669 -0.0469528,0.0469528 0,0.0258898 0.0210669,0.0469528 0.0469528,0.0469528 0.0258858,0 0.0469528,-0.021063 0.0469528,-0.0469528 0,-0.0258858 -0.0210551,-0.0469528 -0.0469528,-0.0469528z"/><path class="fil0" d="M1.40179 1.16538c-0.0998189,0 -0.181035,-0.0812323 -0.181035,-0.181051 0,-0.099815 0.0812165,-0.18102 0.181035,-0.18102 0.099815,0 0.181031,0.0812047 0.181031,0.18102 0,0.0998189 -0.0812165,0.181051 -0.181031,0.181051zm0 -0.0941102c-0.0479252,0 -0.0869409,-0.0390118 -0.0869409,-0.0869409 0,-0.0479252 0.0390118,-0.086937 0.0869409,-0.086937 0.0479252,0 0.086937,0.0390118 0.086937,0.086937 0,0.0479291 -0.0390157,0.0869409 -0.086937,0.0869409zm0 -0.133878c-0.0258819,0 -0.0469528,0.0210669 -0.0469528,0.0469528 0,0.0258898 0.021063,0.0469528 0.0469528,0.0469528 0.0258858,0 0.0469528,-0.021063 0.0469528,-0.0469528 0,-0.0258858 -0.0210709,-0.0469528 -0.0469528,-0.0469528z"/><path class="fil0" d="M0.241929 0.811587l-0.0806102 0c-0.0110315,0 -0.0199843,-0.00895276 -0.0199843,-0.0199843l0 -0.0673425 0.120579 0 0 0.0673425c0,0.0110315 -0.00895276,0.0199843 -0.0199843,0.0199843z"/><path class="fil0" d="M0.308185 0.684264l-0.287583 0c-0.0110315,0 -0.0199843,-0.00895669 -0.0199843,-0.0199882l0 -0.0978858c0,-0.00621654 0.00288583,-0.0120748 0.00781496,-0.0158622 0.00491732,-0.00377559 0.0113543,-0.00505118 0.0173386,-0.00345669l0.0890039 0.0238583 0.0113425 -0.0196417c0.00405512,-0.0070315 0.0118661,-0.010937 0.02,-0.00981496l0.170012 0.0231378c0.0346417,0.00472441 0.0749764,0.0397953 0.0726575,0.0740039 -0.00113386,0.0170709 -0.0131339,0.0456496 -0.0806024,0.0456496z"/></g><text x="0" y="16.70666" fill="#000000" font-size="5px" font-weight="bold" font-family="'Helvetica Neue', Helvetica, Arial-Unicode, Arial, Sans-serif">Created by Amir Ali</text><text x="0" y="21.70666" fill="#000000" font-size="5px" font-weight="bold" font-family="'Helvetica Neue', Helvetica, Arial-Unicode, Arial, Sans-serif">from the Noun Project</text></svg>